<svg xmlns="http://www.w3.org/2000/svg" viewBox="0 0 512 512">
  <rect width="512" height="512" rx="64" fill="#000000"/>
  <path d="M160 160h40v40h-40zM200 200h40v40h-40zM240 160h40v40h-40zM280 200h40v40h-40zM320 160h40v40h-40z" fill="white"/>
  <path d="M160 240h40v40h-40zM200 280h40v40h-40zM240 240h40v40h-40zM280 280h40v40h-40zM320 240h40v40h-40z" fill="white" opacity="0.7"/>
  <path d="M160 320h40v40h-40zM200 360h40v40h-40zM240 320h40v40h-40zM280 360h40v40h-40zM320 320h40v40h-40z" fill="white" opacity="0.4"/>
</svg>
